<?xml version="1.0" encoding="UTF-8"?>
<svg width="546px" height="185px" viewBox="0 0 546 185" version="1.1" xmlns="http://www.w3.org/2000/svg" xmlns:xlink="http://www.w3.org/1999/xlink">
    <!-- Generator: Sketch 42 (36781) - http://www.bohemiancoding.com/sketch -->
    <title>Combined Shape</title>
    <desc>Created with Sketch.</desc>
    <defs></defs>
    <g id="Page-1" stroke="none" stroke-width="1" fill="none" fill-rule="evenodd">
        <g id="Artboard" transform="translate(-30.000000, -250.000000)" fill="#7A848D">
            <path d="M255.02199,353.039421 L255.02199,289.572897 L277.905694,289.572897 C296.498704,289.572897 308.655672,302.266202 308.655672,321.037991 C308.655672,339.809779 296.588093,353.039421 277.726915,353.039421 L255.02199,353.039421 Z M330.377313,354.112094 C321.259587,354.112094 315.181103,348.838116 315.181103,340.882453 C315.181103,336.591758 317.058282,333.016179 320.633861,330.781443 C323.851882,328.904264 328.142576,327.742201 335.204344,326.758917 L344.679628,325.596853 L344.679628,324.43479 C344.679628,317.73058 342.087334,314.870117 336.366407,314.870117 C331.092429,314.870117 327.963797,317.641191 327.606239,322.73639 L316.611335,322.73639 C317.32645,313.171717 324.835166,307.272012 336.366407,307.272012 C349.596049,307.272012 355.495754,312.903549 355.495754,325.865022 L355.495754,339.184053 C355.495754,345.262537 355.942701,349.910789 356.836596,353.039421 L346.10986,353.039421 C345.752302,350.804684 345.484133,348.123 345.394744,345.351926 C343.249397,350.804684 337.61786,354.112094 330.377313,354.112094 Z M362.557522,316.12157 L362.557522,308.344686 L370.602574,308.344686 L370.602574,297.081613 L381.329311,292.790918 L381.329311,308.344686 L392.234826,308.344686 L392.234826,316.12157 L381.329311,316.12157 L381.329311,337.485653 C381.329311,342.312684 383.385269,344.547421 387.854742,344.547421 C389.642532,344.547421 390.804595,344.368642 392.234826,344.011084 L392.234826,353.039421 C389.642532,353.575758 387.675963,353.843926 384.90489,353.843926 C374.178153,353.843926 370.602574,348.212389 370.602574,339.184053 L370.602574,316.12157 L362.557522,316.12157 Z M401.531331,300.92536 L401.531331,289.751676 L413.151962,289.751676 L413.151962,300.92536 L401.531331,300.92536 Z M402.067668,353.039421 L402.067668,308.344686 L412.794404,308.344686 L412.794404,353.039421 L402.067668,353.039421 Z M445.153392,354.112094 C431.834361,354.112094 423.252972,344.904979 423.252972,330.692053 C423.252972,316.12157 431.655582,307.272012 445.242782,307.272012 C456.327076,307.272012 463.567623,313.171717 464.908465,323.362117 L454.449897,325.060517 C453.734781,318.982033 450.248592,315.674622 444.974613,315.674622 C438.359793,315.674622 434.247877,321.216769 434.247877,330.423885 C434.247877,340.077948 438.270403,345.620095 445.153392,345.620095 C450.516761,345.620095 453.824171,342.312684 454.807455,336.055421 L464.908465,338.111379 C463.299455,348.03361 455.790739,354.112094 445.153392,354.112094 Z M486.540717,354.112094 C477.422991,354.112094 471.344507,348.838116 471.344507,340.882453 C471.344507,336.591758 473.221686,333.016179 476.797265,330.781443 C480.015286,328.904264 484.30598,327.742201 491.367748,326.758917 L500.843032,325.596853 L500.843032,324.43479 C500.843032,317.73058 498.250737,314.870117 492.529811,314.870117 C487.255833,314.870117 484.127201,317.641191 483.769643,322.73639 L472.774739,322.73639 C473.489854,313.171717 480.99857,307.272012 492.529811,307.272012 C505.759453,307.272012 511.659158,312.903549 511.659158,325.865022 L511.659158,339.184053 C511.659158,345.262537 512.106105,349.910789 513,353.039421 L502.273264,353.039421 C501.915706,350.804684 501.647537,348.123 501.558148,345.351926 C499.412801,350.804684 493.781264,354.112094 486.540717,354.112094 Z M490.026906,346.513989 C496.641727,346.513989 501.111201,341.865737 501.111201,334.714579 L501.111201,331.854116 L491.01019,333.373737 C485.110485,334.357022 482.428801,336.502369 482.428801,340.346116 C482.428801,344.100474 485.289264,346.513989 490.026906,346.513989 Z M333.863502,346.513989 C340.478323,346.513989 344.947797,341.865737 344.947797,334.714579 L344.947797,331.854116 L334.846786,333.373737 C328.947081,334.357022 326.265397,336.502369 326.265397,340.346116 C326.265397,344.100474 329.12586,346.513989 333.863502,346.513989 Z M266.553231,344.011084 L277.369357,344.011084 C289.705104,344.011084 296.588093,333.641906 296.588093,321.037991 C296.588093,308.165907 289.973273,298.601234 277.548136,298.601234 L266.553231,298.601234 L266.553231,344.011084 Z M258.854,402.719 C256.753989,401.388993 255.186005,399.548012 254.15,397.196 C253.113995,394.843988 252.596,392.128015 252.596,389.048 C252.596,385.939984 253.148994,383.217012 254.255,380.879 C255.361006,378.540988 256.96399,376.721007 259.064,375.419 C261.164011,374.116993 263.683985,373.466 266.624,373.466 C270.264018,373.466 273.147989,374.41799 275.276,376.322 C277.404011,378.22601 278.677998,380.801984 279.098,384.05 L273.554,384.848 C273.301999,382.691989 272.560006,380.998006 271.328,379.766 C270.095994,378.533994 268.47201,377.918 266.456,377.918 C263.851987,377.918 261.822007,378.91899 260.366,380.921 C258.909993,382.92301 258.182,385.617983 258.182,389.006 C258.182,392.366017 258.916993,395.06799 260.387,397.112 C261.857007,399.15601 263.921987,400.178 266.582,400.178 C268.48601,400.178 270.060994,399.583006 271.307,398.393 C272.553006,397.202994 273.371998,395.544011 273.764,393.416 L279.14,394.508 C278.467997,397.644016 277.075011,400.128991 274.961,401.963 C272.846989,403.797009 270.040017,404.714 266.54,404.714 C263.515985,404.714 260.95401,404.049007 258.854,402.719 Z M287.141,403.202 C285.586992,402.333996 284.376004,401.067008 283.508,399.401 C282.639996,397.734992 282.206,395.754011 282.206,393.458 C282.206,391.161989 282.639996,389.188008 283.508,387.536 C284.376004,385.883992 285.586992,384.631004 287.141,383.777 C288.695008,382.922996 290.47999,382.496 292.496,382.496 C294.51201,382.496 296.296992,382.922996 297.851,383.777 C299.405008,384.631004 300.615996,385.883992 301.484,387.536 C302.352004,389.188008 302.786,391.161989 302.786,393.458 C302.786,395.754011 302.352004,397.734992 301.484,399.401 C300.615996,401.067008 299.405008,402.333996 297.851,403.202 C296.296992,404.070004 294.51201,404.504 292.496,404.504 C290.47999,404.504 288.695008,404.070004 287.141,403.202 Z M312.53,383 L312.53,386.738 C313.146003,385.281993 313.964995,384.204003 314.987,383.504 C316.009005,382.803996 317.261993,382.454 318.746,382.454 C321.714015,382.454 323.701995,383.881986 324.71,386.738 C326.110007,383.881986 328.293985,382.454 331.262,382.454 C333.27801,382.454 334.852994,383.139993 335.987,384.512 C337.121006,385.884007 337.688,387.801988 337.688,390.266 L337.688,404 L332.648,404 L332.648,391.064 C332.648,388.039985 331.500011,386.528 329.204,386.528 C327.915994,386.528 326.929003,386.975996 326.243,387.872 C325.556997,388.768004 325.214,390.055992 325.214,391.736 L325.214,404 L320.174,404 L320.174,390.938 C320.174,389.481993 319.887003,388.383004 319.313,387.641 C318.738997,386.898996 317.892006,386.528 316.772,386.528 C315.511994,386.528 314.532003,386.996995 313.832,387.935 C313.131996,388.873005 312.782,390.181992 312.782,391.862 L312.782,404 L307.742,404 L307.742,383 L312.53,383 Z M343.862,383 L348.65,383 L348.65,386.654 C349.294003,385.309993 350.196994,384.281004 351.359,383.567 C352.521006,382.852996 353.857992,382.496 355.37,382.496 C357.050008,382.496 358.526994,382.950995 359.801,383.861 C361.075006,384.771005 362.061997,386.051992 362.762,387.704 C363.462004,389.356008 363.812,391.273989 363.812,393.458 C363.812,395.670011 363.448004,397.615992 362.72,399.296 C361.991996,400.976008 360.970007,402.263996 359.654,403.16 C358.337993,404.056004 356.826009,404.504 355.118,404.504 C353.689993,404.504 352.444005,404.189003 351.38,403.559 C350.315995,402.928997 349.490003,402.068005 348.902,400.976 L348.902,412.19 L343.862,412.19 L343.862,383 Z M374.06,404 L369.02,404 L369.02,373.55 L374.06,373.55 L374.06,404 Z M380.948,383 L385.988,383 L385.988,404 L380.948,404 L380.948,383 Z M380.696,374.264 L386.156,374.264 L386.156,379.514 L380.696,379.514 L380.696,374.264 Z M392.771,402.803 C391.468993,401.668994 390.818,400.164009 390.818,398.288 C390.818,397.279995 391.034998,396.370004 391.469,395.558 C391.903002,394.745996 392.539996,394.074003 393.38,393.542 C394.136004,393.093998 395.045995,392.723001 396.11,392.429 C397.174005,392.134999 398.545992,391.876001 400.226,391.652 L404.678,391.106 L404.678,390.56 C404.678,388.991992 404.363003,387.851004 403.733,387.137 C403.102997,386.422996 402.116007,386.066 400.772,386.066 C399.539994,386.066 398.567004,386.380997 397.853,387.011 C397.138996,387.641003 396.74,388.557994 396.656,389.762 L391.49,389.762 C391.658001,387.521989 392.567992,385.751007 394.22,384.449 C395.872008,383.146993 398.055986,382.496 400.772,382.496 C403.880016,382.496 406.154993,383.188993 407.597,384.575 C409.039007,385.961007 409.76,388.179985 409.76,391.232 L409.76,397.49 C409.76,400.346014 409.969998,402.515993 410.39,404 L405.35,404 C405.153999,402.851994 405.042,401.648006 405.014,400.388 C404.509997,401.676006 403.635006,402.683996 402.389,403.412 C401.142994,404.140004 399.666009,404.504 397.958,404.504 C395.801989,404.504 394.073007,403.937006 392.771,402.803 Z M415.976,383 L420.764,383 L420.764,387.074 C422.192007,383.993985 424.515984,382.454 427.736,382.454 C430.032011,382.454 431.767994,383.174993 432.944,384.617 C434.120006,386.059007 434.708,388.179986 434.708,390.98 L434.708,404 L429.626,404 L429.626,391.484 C429.626,388.179983 428.324013,386.528 425.72,386.528 C424.235993,386.528 423.081004,387.087994 422.255,388.208 C421.428996,389.328006 421.016,390.88199 421.016,392.87 L421.016,404 L415.976,404 L415.976,383 Z M437.984,383 L441.764,383 L441.764,377.708 L446.804,375.692 L446.804,383 L451.928,383 L451.928,386.654 L446.804,386.654 L446.804,396.692 C446.804,397.840006 447.055997,398.679997 447.56,399.212 C448.064003,399.744003 448.833995,400.01 449.87,400.01 C450.570003,400.01 451.255997,399.926001 451.928,399.758 L451.928,404 C450.695994,404.252001 449.548005,404.378 448.484,404.378 C446.075988,404.378 444.354005,403.790006 443.318,402.614 C442.281995,401.437994 441.764,399.730011 441.764,397.49 L441.764,386.654 L437.984,386.654 L437.984,383 Z M471.71,402.719 C469.60999,401.388993 468.042005,399.548012 467.006,397.196 C465.969995,394.843988 465.452,392.128015 465.452,389.048 C465.452,385.939984 466.004994,383.217012 467.111,380.879 C468.217006,378.540988 469.81999,376.721007 471.92,375.419 C474.020011,374.116993 476.539985,373.466 479.48,373.466 C483.120018,373.466 486.003989,374.41799 488.132,376.322 C490.260011,378.22601 491.533998,380.801984 491.954,384.05 L486.41,384.848 C486.157999,382.691989 485.416006,380.998006 484.184,379.766 C482.951994,378.533994 481.32801,377.918 479.312,377.918 C476.707987,377.918 474.678007,378.91899 473.222,380.921 C471.765993,382.92301 471.038,385.617983 471.038,389.006 C471.038,392.366017 471.772993,395.06799 473.243,397.112 C474.713007,399.15601 476.777987,400.178 479.438,400.178 C481.34201,400.178 482.916994,399.583006 484.163,398.393 C485.409006,397.202994 486.227998,395.544011 486.62,393.416 L491.996,394.508 C491.323997,397.644016 489.931011,400.128991 487.817,401.963 C485.702989,403.797009 482.896018,404.714 479.396,404.714 C476.371985,404.714 473.810011,404.049007 471.71,402.719 Z M502.076,404 L497.036,404 L497.036,373.55 L502.076,373.55 L502.076,404 Z M512.135,403.202 C510.580992,402.333996 509.370004,401.067008 508.502,399.401 C507.633996,397.734992 507.2,395.754011 507.2,393.458 C507.2,391.161989 507.633996,389.188008 508.502,387.536 C509.370004,385.883992 510.580992,384.631004 512.135,383.777 C513.689008,382.922996 515.47399,382.496 517.49,382.496 C519.50601,382.496 521.290992,382.922996 522.845,383.777 C524.399008,384.631004 525.609996,385.883992 526.478,387.536 C527.346004,389.188008 527.78,391.161989 527.78,393.458 C527.78,395.754011 527.346004,397.734992 526.478,399.401 C525.609996,401.067008 524.399008,402.333996 522.845,403.202 C521.290992,404.070004 519.50601,404.504 517.49,404.504 C515.47399,404.504 513.689008,404.070004 512.135,403.202 Z M532.232,396.482 L532.232,383 L537.272,383 L537.272,395.726 C537.272,397.266008 537.586997,398.441996 538.217,399.254 C538.847003,400.066004 539.763994,400.472 540.968,400.472 C542.368007,400.472 543.487996,399.940005 544.328,398.876 C545.168004,397.811995 545.588,396.398009 545.588,394.634 L545.588,383 L550.67,383 L550.67,404 L545.882,404 L545.882,400.094 C545.377997,401.410007 544.531006,402.473996 543.341,403.286 C542.150994,404.098004 540.814007,404.504 539.33,404.504 C534.597976,404.504 532.232,401.830027 532.232,396.482 Z M559.658,403.139 C558.369994,402.228995 557.376004,400.941008 556.676,399.275 C555.975997,397.608992 555.626,395.698011 555.626,393.542 C555.626,391.385989 555.996996,389.468008 556.739,387.788 C557.481004,386.107992 558.523993,384.806005 559.868,383.882 C561.212007,382.957995 562.751991,382.496 564.488,382.496 C567.316014,382.496 569.331994,383.657988 570.536,385.982 L570.536,373.55 L575.576,373.55 L575.576,404 L570.83,404 L570.83,400.22 C570.241997,401.564007 569.367006,402.613996 568.205,403.37 C567.042994,404.126004 565.678008,404.504 564.11,404.504 C562.429992,404.504 560.946006,404.049005 559.658,403.139 Z M569.36,398.897 C570.228004,397.734994 570.662,396.17401 570.662,394.214 L570.662,392.87 C570.662,390.82599 570.228004,389.230006 569.36,388.082 C568.491996,386.933994 567.302008,386.36 565.79,386.36 C564.249992,386.36 563.046004,386.982994 562.178,388.229 C561.309996,389.475006 560.876,391.217989 560.876,393.458 C560.876,395.698011 561.316996,397.454994 562.199,398.729 C563.081004,400.003006 564.291992,400.64 565.832,400.64 C567.316007,400.64 568.491996,400.059006 569.36,398.897 Z M521.27,398.855 C522.166004,397.636994 522.614,395.838012 522.614,393.458 C522.614,391.105988 522.173004,389.328006 521.291,388.124 C520.408996,386.919994 519.142008,386.318 517.49,386.318 C515.837992,386.318 514.564004,386.919994 513.668,388.124 C512.771996,389.328006 512.324,391.105988 512.324,393.458 C512.324,395.810012 512.771996,397.601994 513.668,398.834 C514.564004,400.066006 515.837992,400.682 517.49,400.682 C519.114008,400.682 520.373996,400.073006 521.27,398.855 Z M403.376,399.422 C404.328005,398.413995 404.804,397.070008 404.804,395.39 L404.804,394.046 L400.058,394.76 C398.657993,394.984001 397.636003,395.361997 396.992,395.894 C396.347997,396.426003 396.026,397.139996 396.026,398.036 C396.026,398.932004 396.340997,399.638997 396.971,400.157 C397.601003,400.675003 398.475994,400.934 399.596,400.934 C401.164008,400.934 402.423995,400.430005 403.376,399.422 Z M357.239,398.729 C358.121004,397.454994 358.562,395.698011 358.562,393.458 C358.562,391.217989 358.135004,389.475006 357.281,388.229 C356.426996,386.982994 355.230008,386.36 353.69,386.36 C352.149992,386.36 350.946004,386.940994 350.078,388.103 C349.209996,389.265006 348.776,390.895989 348.776,392.996 L348.776,394.046 C348.776,396.06201 349.216996,397.664994 350.099,398.855 C350.981004,400.045006 352.163993,400.64 353.648,400.64 C355.160008,400.64 356.356996,400.003006 357.239,398.729 Z M296.276,398.855 C297.172004,397.636994 297.62,395.838012 297.62,393.458 C297.62,391.105988 297.179004,389.328006 296.297,388.124 C295.414996,386.919994 294.148008,386.318 292.496,386.318 C290.843992,386.318 289.570004,386.919994 288.674,388.124 C287.777996,389.328006 287.33,391.105988 287.33,393.458 C287.33,395.810012 287.777996,397.601994 288.674,398.834 C289.570004,400.066006 290.843992,400.682 292.496,400.682 C294.120008,400.682 295.379996,400.073006 296.276,398.855 Z M73.8540031,262.041995 L91.7634746,262.041995 L82.7603349,326.136483 L73.8540031,262.041995 Z M139.489796,250 L152.752486,262.041995 L103.380429,303.703412 L139.489796,250 Z M196.219257,285.154856 L198.058608,303.023622 L133.584511,300.790026 L196.219257,285.154856 Z M215,349.249344 L204.447933,363.816273 L157.980115,318.853018 L215,349.249344 Z M186.15123,409.55643 L168.62899,413.343832 L164.079016,348.76378 L186.15123,409.55643 Z M124.484563,435 L108.898482,426.065617 L148.686552,374.984252 L124.484563,435 Z M61.6562009,412.566929 L56.1381476,395.475066 L119.644165,384.209974 L61.6562009,412.566929 Z M30,353.716535 L37.2605965,337.304462 L92.0538985,371.585302 L30,353.716535 Z M45.6828885,288.650919 L62.0434328,281.367454 L79.8560963,343.616798 L45.6828885,288.650919 Z M100.766614,250.971129 L117.804814,256.506562 L89.5368917,314.677165 L100.766614,250.971129 Z M166.886447,259.808399 L175.792779,275.44357 L115.965463,299.624672 L166.886447,259.808399 Z M210.062794,310.792651 L206.287284,328.370079 L145.685505,306.228346 L210.062794,310.792651 Z M208.126635,377.703412 L193.605442,388.191601 L163.304553,331.089239 L208.126635,377.703412 Z M162.046049,426.065617 L144.233386,424.220472 L159.819466,361.388451 L162.046049,426.065617 Z M95.6357928,431.115486 L83.6316065,417.811024 L137.069597,381.587927 L95.6357928,431.115486 Z M42.7786499,390.328084 L42.7786499,372.362205 L106.6719,381.296588 L42.7786499,390.328084 Z M30.8712716,324.485564 L42.7786499,311.181102 L84.3092622,360.708661 L30.8712716,324.485564 Z" id="Combined-Shape"></path>
        </g>
    </g>
</svg>
