<?xml version="1.0" encoding="UTF-8"?>
<svg width="500px" height="202px" viewBox="0 0 500 202" version="1.1" xmlns="http://www.w3.org/2000/svg" xmlns:xlink="http://www.w3.org/1999/xlink">
    <!-- Generator: Sketch 42 (36781) - http://www.bohemiancoding.com/sketch -->
    <title>_datica-logo-deep</title>
    <desc>Created with Sketch.</desc>
    <defs></defs>
    <g id="Page-1" stroke="none" stroke-width="1" fill="none" fill-rule="evenodd">
        <g id="Artboard" fill="#7A848D">
            <path d="M0.949850823,81.2033535 L13.9311454,66.6989736 L59.207368,120.693381 L0.949850823,81.2033535 Z M13.9311454,152.984154 L13.9311454,133.397947 L83.5868725,143.138115 L13.9311454,152.984154 Z M71.5554287,197.450136 L58.4685951,182.945756 L116.726112,143.455729 L71.5554287,197.450136 Z M143.955169,191.944824 L124.535997,189.933268 L141.527773,121.43448 L143.955169,191.944824 Z M194.191724,139.220873 L178.360877,150.654983 L145.327176,88.4026078 L194.191724,139.220873 Z M196.302504,66.275488 L192.186483,85.438209 L126.119082,61.2995329 L196.302504,66.275488 Z M149.232118,10.69301 L158.941704,27.7383033 L93.7186146,54.1002786 L149.232118,10.69301 Z M77.1489947,1.05871387 L95.7238552,7.0933829 L64.9064729,70.5103435 L77.1489947,1.05871387 Z M17.0973148,42.1368119 L34.9334025,34.1964579 L54.3525749,102.060017 L17.0973148,42.1368119 Z M0,113.070641 L7.91542353,95.1783766 L67.6504864,132.550976 L0,113.070641 Z M34.5112466,177.228701 L28.4955247,158.595337 L97.7290958,146.314256 L34.5112466,177.228701 Z M103.006045,201.684992 L86.014269,191.944824 L129.39079,136.256475 L103.006045,201.684992 Z M170.234375,173.946688 L151.13182,178.075672 L146.171488,107.6712 L170.234375,173.946688 Z M201.684992,108.200557 L190.181243,124.081265 L139.522532,75.0628131 L201.684992,108.200557 Z M181.210429,38.325442 L183.21567,57.8057771 L112.926709,55.3707352 L181.210429,38.325442 Z M119.364587,1.42108547e-14 L133.823427,13.1280519 L79.9985471,58.5468768 L119.364587,1.42108547e-14 Z M47.8091581,13.1280519 L67.3338695,13.1280519 L57.5187443,83.0031671 L47.8091581,13.1280519 Z M242.02199,132.039421 L242.02199,68.5728971 L264.905694,68.5728971 C283.498704,68.5728971 295.655672,81.2662018 295.655672,100.037991 C295.655672,118.809779 283.588093,132.039421 264.726915,132.039421 L242.02199,132.039421 Z M317.377313,133.112094 C308.259587,133.112094 302.181103,127.838116 302.181103,119.882453 C302.181103,115.591758 304.058282,112.016179 307.633861,109.781443 C310.851882,107.904264 315.142576,106.742201 322.204344,105.758917 L331.679628,104.596853 L331.679628,103.43479 C331.679628,96.7305801 329.087334,93.8701171 323.366407,93.8701171 C318.092429,93.8701171 314.963797,96.6411907 314.606239,101.73639 L303.611335,101.73639 C304.32645,92.1717172 311.835166,86.2720122 323.366407,86.2720122 C336.596049,86.2720122 342.495754,91.9035488 342.495754,104.865022 L342.495754,118.184053 C342.495754,124.262537 342.942701,128.910789 343.836596,132.039421 L333.10986,132.039421 C332.752302,129.804684 332.484133,127.123 332.394744,124.351926 C330.249397,129.804684 324.61786,133.112094 317.377313,133.112094 Z M349.557522,95.1215697 L349.557522,87.3446858 L357.602574,87.3446858 L357.602574,76.0816126 L368.329311,71.790918 L368.329311,87.3446858 L379.234826,87.3446858 L379.234826,95.1215697 L368.329311,95.1215697 L368.329311,116.485653 C368.329311,121.312684 370.385269,123.547421 374.854742,123.547421 C376.642532,123.547421 377.804595,123.368642 379.234826,123.011084 L379.234826,132.039421 C376.642532,132.575758 374.675963,132.843926 371.90489,132.843926 C361.178153,132.843926 357.602574,127.212389 357.602574,118.184053 L357.602574,95.1215697 L349.557522,95.1215697 Z M388.531331,79.9253598 L388.531331,68.7516761 L400.151962,68.7516761 L400.151962,79.9253598 L388.531331,79.9253598 Z M389.067668,132.039421 L389.067668,87.3446858 L399.794404,87.3446858 L399.794404,132.039421 L389.067668,132.039421 Z M432.153392,133.112094 C418.834361,133.112094 410.252972,123.904979 410.252972,109.692053 C410.252972,95.1215697 418.655582,86.2720122 432.242782,86.2720122 C443.327076,86.2720122 450.567623,92.1717172 451.908465,102.362117 L441.449897,104.060517 C440.734781,97.9820327 437.248592,94.6746223 431.974613,94.6746223 C425.359793,94.6746223 421.247877,100.216769 421.247877,109.423885 C421.247877,119.077948 425.270403,124.620095 432.153392,124.620095 C437.516761,124.620095 440.824171,121.312684 441.807455,115.055421 L451.908465,117.111379 C450.299455,127.03361 442.790739,133.112094 432.153392,133.112094 Z M473.540717,133.112094 C464.422991,133.112094 458.344507,127.838116 458.344507,119.882453 C458.344507,115.591758 460.221686,112.016179 463.797265,109.781443 C467.015286,107.904264 471.30598,106.742201 478.367748,105.758917 L487.843032,104.596853 L487.843032,103.43479 C487.843032,96.7305801 485.250737,93.8701171 479.529811,93.8701171 C474.255833,93.8701171 471.127201,96.6411907 470.769643,101.73639 L459.774739,101.73639 C460.489854,92.1717172 467.99857,86.2720122 479.529811,86.2720122 C492.759453,86.2720122 498.659158,91.9035488 498.659158,104.865022 L498.659158,118.184053 C498.659158,124.262537 499.106105,128.910789 500,132.039421 L489.273264,132.039421 C488.915706,129.804684 488.647537,127.123 488.558148,124.351926 C486.412801,129.804684 480.781264,133.112094 473.540717,133.112094 Z M477.026906,125.513989 C483.641727,125.513989 488.111201,120.865737 488.111201,113.714579 L488.111201,110.854116 L478.01019,112.373737 C472.110485,113.357022 469.428801,115.502369 469.428801,119.346116 C469.428801,123.100474 472.289264,125.513989 477.026906,125.513989 Z M320.863502,125.513989 C327.478323,125.513989 331.947797,120.865737 331.947797,113.714579 L331.947797,110.854116 L321.846786,112.373737 C315.947081,113.357022 313.265397,115.502369 313.265397,119.346116 C313.265397,123.100474 316.12586,125.513989 320.863502,125.513989 Z M253.553231,123.011084 L264.369357,123.011084 C276.705104,123.011084 283.588093,112.641906 283.588093,100.037991 C283.588093,87.1659069 276.973273,77.6012336 264.548136,77.6012336 L253.553231,77.6012336 L253.553231,123.011084 Z" id="_datica-logo-deep"></path>
        </g>
    </g>
</svg>
