<?xml version="1.0" encoding="UTF-8"?>
<svg width="579px" height="486px" viewBox="0 0 579 486" version="1.1" xmlns="http://www.w3.org/2000/svg" xmlns:xlink="http://www.w3.org/1999/xlink">
    <!-- Generator: Sketch 42 (36781) - http://www.bohemiancoding.com/sketch -->
    <title>Combined Shape</title>
    <desc>Created with Sketch.</desc>
    <defs></defs>
    <g id="Page-1" stroke="none" stroke-width="1" fill="none" fill-rule="evenodd">
        <path d="M0.92,365 L53.102,365 L53.102,313.933 L126.023,313.933 L126.023,273.347 L53.102,273.347 L53.102,253.5 L131.598,253.5 L131.598,208.9 L0.92,208.9 L0.92,365 Z M212.962998,365 L265.144998,365 L265.144998,313.933 L338.065998,313.933 L338.065998,273.347 L265.144998,273.347 L265.144998,253.5 L343.640998,253.5 L343.640998,208.9 L212.962998,208.9 L212.962998,365 Z M502.386997,368.345 C541.188997,368.345 563.042997,349.39 576.199997,326.198 L533.160997,301.891 C526.693997,313.487 518.442997,321.515 503.724997,321.515 C486.553997,321.515 474.511997,307.243 474.511997,286.95 L474.511997,286.504 C474.511997,267.772 486.107997,252.385 503.724997,252.385 C517.996997,252.385 526.247997,260.19 532.045997,271.34 L575.084997,246.141 C561.927997,222.28 538.735997,205.555 504.393997,205.555 C457.786997,205.555 421.437997,240.343 421.437997,286.95 L421.437997,287.396 C421.437997,335.787 459.124997,368.345 502.386997,368.345 Z M1,389 L579,389 L579,393 L1,393 L1,389 Z M61,427.3 L61,484 L68.9,484 L68.9,414 L60.9,414 L35.4,452.2 L9.9,414 L1.9,414 L1.9,484 L9.6,484 L9.6,427.4 L35.1,464.8 L35.5,464.8 L61,427.3 Z M155.7,448.9 C155.7,468.3 141.2,485.2 119.9,485.2 C98.6,485.2 84.3,468.5 84.3,449.1 C84.3,429.7 98.8,412.8 120.1,412.8 C141.4,412.8 155.7,429.5 155.7,448.9 Z M147.5,449.1 C147.5,433.1 135.9,420.1 119.9,420.1 C103.9,420.1 92.5,432.9 92.5,448.9 C92.5,464.9 104.1,477.9 120.1,477.9 C136.1,477.9 147.5,465.1 147.5,449.1 Z M229,484 L219.3,484 L199,456.8 L179,456.8 L179,484 L171.1,484 L171.1,414 L201.2,414 C216.6,414 226.5,422.3 226.5,434.9 C226.5,446.6 218.5,453.4 207.5,455.4 L229,484 Z M218.5,435.2 C218.5,426.5 211.9,421.3 200.6,421.3 L179,421.3 L179,449.7 L200.5,449.7 C211,449.7 218.5,444.3 218.5,435.2 Z M267.9,421.3 L291.4,421.3 L291.4,414 L236.4,414 L236.4,421.3 L259.9,421.3 L259.9,484 L267.9,484 L267.9,421.3 Z M360.7,474.5 L360.7,446.6 L331.8,446.6 L331.8,453.7 L353.1,453.7 L353.1,471.1 C348.3,475 340.9,478.1 332.9,478.1 C315.9,478.1 305.2,465.7 305.2,448.9 C305.2,433.2 316.3,420.1 331.8,420.1 C341.7,420.1 347.7,423.4 353.1,428.1 L358.2,422.1 C351.2,416.2 343.9,412.8 332.1,412.8 C311.1,412.8 297,429.8 297,449.1 C297,469.2 310.6,485.2 332.6,485.2 C344.4,485.2 354.2,480.3 360.7,474.5 Z M410.5,413.5 L442.4,484 L433.9,484 L425.7,465.5 L387.6,465.5 L379.3,484 L371.2,484 L403.1,413.5 L410.5,413.5 Z M422.6,458.4 L406.7,422.7 L390.7,458.4 L422.6,458.4 Z M511.4,474.5 L511.4,446.6 L482.5,446.6 L482.5,453.7 L503.8,453.7 L503.8,471.1 C499,475 491.6,478.1 483.6,478.1 C466.6,478.1 455.9,465.7 455.9,448.9 C455.9,433.2 467,420.1 482.5,420.1 C492.4,420.1 498.4,423.4 503.8,428.1 L508.9,422.1 C501.9,416.2 494.6,412.8 482.8,412.8 C461.8,412.8 447.7,429.8 447.7,449.1 C447.7,469.2 461.3,485.2 483.3,485.2 C495.1,485.2 504.9,480.3 511.4,474.5 Z M578.5,414 L527.9,414 L527.9,484 L579,484 L579,476.8 L535.8,476.8 L535.8,452.3 L574,452.3 L574,445.1 L535.8,445.1 L535.8,421.2 L578.5,421.2 L578.5,414 Z M1.5,184.5 L113.5,82.5 L113.5,28.4629757 L151.014336,28.4629757 L151.014336,47.5578832 L200.5,0.5 L400.5,188 L301.488637,188 L200.5,94 L100,187.5 M331,101 L358,129 L405.5,82 L520.5,190.5 L578,190.5 L405.5,31.5 L360.5,67 L360.5,48.9376081 L330.494729,48.9376081" id="Combined-Shape" fill="#010101"></path>
    </g>
</svg>