<?xml version="1.0" encoding="UTF-8"?>
<svg width="232px" height="210px" viewBox="0 0 232 210" version="1.1" xmlns="http://www.w3.org/2000/svg" xmlns:xlink="http://www.w3.org/1999/xlink">
    <!-- Generator: Sketch 42 (36781) - http://www.bohemiancoding.com/sketch -->
    <title>GT</title>
    <desc>Created with Sketch.</desc>
    <defs></defs>
    <g id="Page-1" stroke="none" stroke-width="1" fill="none" fill-rule="evenodd">
        <path d="M0.807617188,142.870528 L0.807617188,71.6998162 C0.807617188,23.9530854 20.6768443,0.080078125 60.4158945,0.080078125 C68.7977657,0.080078125 76.2627578,1.18392407 82.8110947,3.39164909 C89.3594316,5.5993741 94.8412428,8.64898239 99.2566928,12.5405655 C103.672143,16.4321485 107.301738,21.2217174 110.145587,26.9094157 C112.989436,32.5971141 115.047454,38.7711677 116.319703,45.4317618 C117.591951,52.0923559 118.228065,59.4263832 118.228065,67.4340638 L118.228065,79.3332679 L79.1627538,79.3332679 L79.1627538,65.1889309 C79.1627538,61.6715385 79.0692075,58.5845117 78.8821122,55.9277579 C78.6950169,53.271004 78.2272855,50.314942 77.4789042,47.0594831 C76.7305228,43.8040242 75.7202231,41.128601 74.4479748,39.0331331 C73.1757265,36.9376653 71.3422197,35.1789955 68.9473993,33.7570709 C66.552579,32.3351464 63.7087725,31.6241947 60.4158945,31.6241947 C47.9179258,31.6241947 41.6690351,41.5775175 41.6690351,61.4844617 L41.6690351,148.707873 C41.6690351,168.539979 47.9179258,178.455883 60.4158945,178.455883 C72.839025,178.455883 79.0504972,168.165794 79.0504972,147.585307 L79.0504972,131.42035 L55.9256288,131.42035 L55.9256288,102.121366 L119.911915,102.121366 L119.911915,206.071018 L91.8477544,206.071018 L86.6839489,191.926681 C83.2413946,197.315026 78.3395702,201.674282 71.9783287,205.004579 C65.6170871,208.334876 59.0688484,210 52.3334162,210 C45.074117,210 38.4697506,208.671643 32.5201188,206.014889 C26.5704869,203.358135 21.6686626,199.840796 17.8144986,195.462765 C13.9603346,191.084734 10.7236337,185.939689 8.10429896,180.027476 C5.4849642,174.115264 3.61403887,168.072175 2.49146683,161.898029 C1.36889479,155.723882 0.807617188,149.381445 0.807617188,142.870528 Z M161.55913,206.071018 L161.55913,34.5428674 L131.923376,34.5428674 L131.923376,4.00906062 L231.495018,4.00906062 L231.495018,34.5428674 L202.420548,34.5428674 L202.420548,206.071018 L161.55913,206.071018 Z" id="GT" fill="#7A848D"></path>
    </g>
</svg>
