<?xml version="1.0" encoding="UTF-8"?>
<svg width="379px" height="81px" viewBox="0 0 379 81" version="1.1" xmlns="http://www.w3.org/2000/svg" xmlns:xlink="http://www.w3.org/1999/xlink">
    <!-- Generator: Sketch 42 (36781) - http://www.bohemiancoding.com/sketch -->
    <title>Gradesnap</title>
    <desc>Created with Sketch.</desc>
    <defs></defs>
    <g id="Page-1" stroke="none" stroke-width="1" fill="none" fill-rule="evenodd">
        <path d="M52.5320306,54.6691217 C49.0273394,56.4976562 45.3703253,57.8182447 41.5608783,58.6309267 C37.7514314,59.4436087 33.8658538,59.8499436 29.904029,59.8499436 C25.6882411,59.8499436 21.8026635,59.1896494 18.2471797,57.8690411 C14.6916959,56.5484328 11.6187881,54.6564359 9.02836422,52.1929936 C6.43794031,49.7295512 4.41896372,46.7455292 2.97137389,43.240838 C1.52378406,39.7361469 0.8,35.8251733 0.8,31.5078002 C0.8,27.190427 1.52378406,23.2794535 2.97137389,19.7747623 C4.41896372,16.2700711 6.43794031,13.2860491 9.02836422,10.8226068 C11.6187881,8.35916442 14.6916959,6.46716749 18.2471797,5.14655923 C21.8026635,3.82595096 25.6882411,3.16565673 29.904029,3.16565673 C34.2214022,3.16565673 38.1958655,3.68627333 41.8275383,4.72752216 C45.459211,5.76877099 48.6464005,7.55918419 51.3892023,10.0988155 L43.0084609,19.2414424 C41.3830969,17.5652857 39.5545898,16.2954891 37.5228848,15.4320145 C35.4911797,14.5685399 32.9515866,14.136809 29.904029,14.136809 C27.3643977,14.136809 25.0660659,14.5685399 23.0089645,15.4320145 C20.9518632,16.2954891 19.1868459,17.5017959 17.7138598,19.050971 C16.2408736,20.6001461 15.1107547,22.4413511 14.323469,24.5746414 C13.5361833,26.7079317 13.1425463,29.0189615 13.1425463,31.5078002 C13.1425463,34.0474314 13.5361833,36.3711592 14.323469,38.4790532 C15.1107547,40.5869471 16.2408736,42.4154542 17.7138598,43.9646293 C19.1868459,45.5138044 20.9518632,46.7201112 23.0089645,47.5835858 C25.0660659,48.4470605 27.3643977,48.8787913 29.904029,48.8787913 C32.4944529,48.8787913 34.7292949,48.5867381 36.6086221,48.0026229 C38.4879492,47.4185077 39.9863092,46.8217033 41.103747,46.2121918 L41.103747,37.4505077 L31.4278002,37.4505077 L31.4278002,26.4793554 L52.5320306,26.4793554 L52.5320306,54.6691217 Z M61.5222804,21.4509106 L72.9505641,21.4509106 L72.9505641,27.393618 L73.1029412,27.393618 C74.3219642,25.1079499 75.7695323,23.3937245 77.445689,22.2508904 C79.1218456,21.1080563 81.229708,20.5366479 83.7693392,20.5366479 C84.4296434,20.5366479 85.0899376,20.5620438 85.7502417,20.6128364 C86.4105459,20.663629 87.0200482,20.7652128 87.5787671,20.9175907 L87.5787671,31.355423 C86.7660851,31.1014599 85.9661133,30.9109904 85.1788276,30.7840089 C84.3915419,30.6570273 83.5661741,30.5935375 82.7026994,30.5935375 C80.5186165,30.5935375 78.7916932,30.8982887 77.5218775,31.5078002 C76.2520619,32.1173117 75.2743185,32.9680754 74.588618,34.0601168 C73.9029176,35.1521583 73.4584888,36.4600488 73.2553183,37.9838276 C73.0521478,39.5076063 72.9505641,41.1837378 72.9505641,43.0122724 L72.9505641,58.4785496 L61.5222804,58.4785496 L61.5222804,21.4509106 Z M115.768533,53.8310475 L115.616156,53.8310475 C114.346341,55.8119599 112.657511,57.2341321 110.549617,58.0976068 C108.441723,58.9610814 106.219579,59.3928122 103.883118,59.3928122 C102.156169,59.3928122 100.492736,59.1515509 98.8927679,58.669021 C97.2928002,58.186491 95.883326,57.4627069 94.664303,56.4976471 C93.44528,55.5325872 92.4802346,54.3389784 91.7691378,52.9167849 C91.058041,51.4945913 90.702498,49.8438558 90.702498,47.9645286 C90.702498,45.8312383 91.0961349,44.0281272 91.8834206,42.555141 C92.6707063,41.0821549 93.7373355,39.8631501 95.08334,38.8980902 C96.4293446,37.9330304 97.9657985,37.1838504 99.6927478,36.6505278 C101.419697,36.1172052 103.21011,35.7235683 105.064041,35.4696052 C106.917972,35.215642 108.771875,35.0632664 110.625806,35.0124738 C112.479737,34.9616812 114.193962,34.9362853 115.768533,34.9362853 C115.768533,32.9045802 115.044749,31.2919385 113.59716,30.0983118 C112.14957,28.9046851 110.435344,28.3078807 108.454432,28.3078807 C106.575105,28.3078807 104.860879,28.7015177 103.311704,29.4888034 C101.762529,30.2760891 100.378451,31.3554162 99.1594279,32.7268171 L93.0643433,26.4793554 C95.1976336,24.498443 97.6864349,23.0127809 100.530822,22.0223247 C103.375209,21.0318685 106.321137,20.5366479 109.368695,20.5366479 C112.721008,20.5366479 115.476467,20.9556807 117.635153,21.7937591 C119.79384,22.6318374 121.520763,23.8635401 122.815975,25.4889041 C124.111187,27.1142681 125.012743,29.1078488 125.520669,31.4697059 C126.028595,33.831563 126.282554,36.5616257 126.282554,39.6599758 L126.282554,58.4785496 L115.768533,58.4785496 L115.768533,53.8310475 Z M112.949557,42.2503868 C112.086082,42.2503868 111.006755,42.2884807 109.711543,42.3646696 C108.416331,42.4408586 107.17193,42.656724 105.978304,43.0122724 C104.784677,43.3678207 103.76884,43.9011353 102.930761,44.6122321 C102.092683,45.3233288 101.67365,46.3137702 101.67365,47.5835858 C101.67365,48.9549867 102.257757,49.970824 103.425987,50.6311281 C104.594217,51.2914323 105.813222,51.6215794 107.083038,51.6215794 C108.200476,51.6215794 109.279803,51.4692038 110.321052,51.164448 C111.3623,50.8596923 112.289252,50.4279614 113.101934,49.8692425 C113.914616,49.3105237 114.562212,48.5994376 115.044742,47.7359629 C115.527272,46.8724883 115.768533,45.856651 115.768533,44.6884206 L115.768533,42.2503868 L112.949557,42.2503868 Z M172.300443,58.4785496 L161.786422,58.4785496 L161.786422,53.6024819 L161.634045,53.6024819 C161.176911,54.262786 160.580107,54.9357782 159.843614,55.6214786 C159.107121,56.3071791 158.243659,56.9293794 157.253203,57.4880983 C156.262747,58.0468172 155.170722,58.503944 153.977095,58.8594923 C152.783468,59.2150407 151.551766,59.3928122 150.28195,59.3928122 C147.539148,59.3928122 145.050347,58.9229875 142.815471,57.9833239 C140.580596,57.0436604 138.663203,55.7230719 137.063235,54.0215189 C135.463268,52.319966 134.231565,50.3009894 133.36809,47.9645286 C132.504616,45.6280678 132.072885,43.0630787 132.072885,40.2694843 C132.072885,37.6790604 132.466522,35.202957 133.253807,32.8410999 C134.041093,30.4792428 135.158514,28.3840784 136.606104,26.5555439 C138.053694,24.7270094 139.818711,23.2667433 141.901209,22.1747019 C143.983706,21.0826604 146.345528,20.5366479 148.986745,20.5366479 C151.373998,20.5366479 153.596142,20.9048889 155.653243,21.641382 C157.710345,22.377875 159.399174,23.6349737 160.719782,25.4127156 L160.87216,25.4127156 L160.87216,0.88 L172.300443,0.88 L172.300443,58.4785496 Z M161.786422,39.9647301 C161.786422,37.1711356 160.98645,34.9108977 159.386483,33.1839484 C157.786515,31.4569992 155.538975,30.5935375 152.643795,30.5935375 C149.748616,30.5935375 147.501076,31.4569992 145.901108,33.1839484 C144.30114,34.9108977 143.501168,37.1711356 143.501168,39.9647301 C143.501168,42.7583245 144.30114,45.0185624 145.901108,46.7455117 C147.501076,48.472461 149.748616,49.3359226 152.643795,49.3359226 C155.538975,49.3359226 157.786515,48.472461 159.386483,46.7455117 C160.98645,45.0185624 161.786422,42.7583245 161.786422,39.9647301 Z M216.489807,52.0787107 C214.661272,54.4151715 212.350242,56.2182827 209.556648,57.4880983 C206.763053,58.757914 203.867917,59.3928122 200.871152,59.3928122 C198.026765,59.3928122 195.347494,58.9356855 192.833259,58.0214182 C190.319024,57.1071509 188.134974,55.7992605 186.281044,54.0977075 C184.427113,52.3961545 182.966847,50.351782 181.900201,47.9645286 C180.833556,45.5772752 180.300242,42.9107023 180.300242,39.9647301 C180.300242,37.0187578 180.833556,34.3521849 181.900201,31.9649315 C182.966847,29.5776781 184.427113,27.5333056 186.281044,25.8317526 C188.134974,24.1301997 190.319024,22.8223092 192.833259,21.9080419 C195.347494,20.9937746 198.026765,20.5366479 200.871152,20.5366479 C203.512369,20.5366479 205.912284,20.9937746 208.070971,21.9080419 C210.229658,22.8223092 212.058165,24.1301997 213.556547,25.8317526 C215.05493,27.5333056 216.210444,29.5776781 217.023127,31.9649315 C217.835809,34.3521849 218.242143,37.0187578 218.242143,39.9647301 L218.242143,43.5455923 L191.728525,43.5455923 C192.185659,45.7296752 193.1761,47.4692965 194.699879,48.7645085 C196.223658,50.0597204 198.102957,50.7073167 200.337832,50.7073167 C202.21716,50.7073167 203.804405,50.2882838 205.099617,49.4502055 C206.394829,48.6121272 207.524948,47.5328 208.490008,46.2121918 L216.489807,52.0787107 Z M206.81386,35.7743594 C206.864652,33.8442396 206.229754,32.193504 204.909146,30.8221031 C203.588538,29.4507022 201.88701,28.7650121 199.804512,28.7650121 C198.534697,28.7650121 197.417276,28.9681795 196.452216,29.3745205 C195.487156,29.7808616 194.661788,30.3014782 193.976088,30.936386 C193.290387,31.5712938 192.757073,32.3077758 192.376128,33.1458541 C191.995183,33.9839325 191.779318,34.8600921 191.728525,35.7743594 L206.81386,35.7743594 Z M245.517647,31.2792345 C244.755758,29.8062483 243.73992,28.6380355 242.470105,27.7745608 C241.200289,26.9110862 239.651137,26.4793554 237.822603,26.4793554 C236.959128,26.4793554 236.082968,26.5809391 235.194098,26.7841096 C234.305227,26.9872801 233.505255,27.3047292 232.794158,27.7364666 C232.083061,28.1682039 231.511653,28.7142164 231.079915,29.3745205 C230.648178,30.0348247 230.432313,30.8474945 230.432313,31.8125544 C230.432313,33.488711 231.016419,34.7077158 232.184649,35.4696052 C233.35288,36.2314945 235.105199,36.8917888 237.44166,37.4505077 L242.546293,38.6695246 C245.035132,39.2282435 247.1049,40.3583624 248.755661,42.0599154 C250.406421,43.7614684 251.231789,45.8820287 251.231789,48.42166 C251.231789,50.3517797 250.838152,52.0152133 250.050866,53.4120105 C249.263581,54.8088077 248.222347,55.9516246 246.927135,56.8404956 C245.631923,57.7293665 244.146261,58.3769628 242.470105,58.7833038 C240.793948,59.1896448 239.092421,59.3928122 237.365471,59.3928122 C234.62267,59.3928122 232.070378,58.8721956 229.708521,57.8309468 C227.346664,56.789698 225.327688,54.9992848 223.651531,52.4596535 L227.994279,49.4882998 C229.010131,51.1136638 230.292626,52.4088563 231.841801,53.3739162 C233.390976,54.3389761 235.232181,54.8214988 237.365471,54.8214988 C238.381324,54.8214988 239.397161,54.7072171 240.413014,54.4786503 C241.428866,54.2500835 242.330422,53.8945404 243.117707,53.4120105 C243.904993,52.9294805 244.539891,52.3072802 245.022421,51.5453908 C245.504951,50.7835014 245.746213,49.8946438 245.746213,48.8787913 C245.746213,47.1010494 245.085919,45.8185548 243.76531,45.0312691 C242.444702,44.2439834 240.844758,43.6217831 238.965431,43.1646495 L234.089363,42.0218211 C233.479852,41.8694432 232.654484,41.6154839 231.613235,41.2599355 C230.571986,40.9043872 229.556149,40.3710726 228.565693,39.6599758 C227.575237,38.9488791 226.724473,38.0219276 226.013376,36.8790935 C225.30228,35.7362594 224.946737,34.3267852 224.946737,32.6506285 C224.946737,30.822094 225.314978,29.2221503 226.051471,27.8507494 C226.787964,26.4793485 227.778405,25.3619275 229.022824,24.4984529 C230.267244,23.6349782 231.676718,22.987382 233.251289,22.5556446 C234.825861,22.1239073 236.4512,21.9080419 238.127357,21.9080419 C240.616196,21.9080419 242.927225,22.3905646 245.060516,23.3556245 C247.193806,24.3206844 248.844542,25.97142 250.012772,28.3078807 L245.517647,31.2792345 Z M263.879089,22.8223046 C263.980675,23.7873645 264.044165,24.7397119 264.069561,25.6793755 C264.094957,26.6190391 264.107655,27.5713865 264.107655,28.5364464 L264.260032,28.5364464 C264.818751,27.5713865 265.529837,26.6825289 266.393312,25.8698469 C267.256786,25.0571649 268.221832,24.3587768 269.288477,23.7746616 C270.355122,23.1905464 271.485241,22.7334196 272.678868,22.4032675 C273.872495,22.0731155 275.053405,21.9080419 276.221636,21.9080419 C280.792972,21.9080419 284.170631,23.1143487 286.354714,25.5269984 C288.538797,27.9396481 289.630822,31.3807969 289.630822,35.8505479 L289.630822,58.4785496 L284.602377,58.4785496 L284.602377,38.7457131 C284.602377,34.7838883 283.916687,31.7490745 282.545286,29.6411805 C281.173885,27.5332865 278.634292,26.4793554 274.92643,26.4793554 C274.672467,26.4793554 273.961381,26.5809391 272.793151,26.7841096 C271.62492,26.9872801 270.393218,27.5459906 269.098006,28.4602579 C267.802794,29.3745251 266.647279,30.7459054 265.631426,32.57444 C264.615574,34.4029745 264.107655,36.9425677 264.107655,40.1932957 L264.107655,58.4785496 L259.07921,58.4785496 L259.07921,30.669726 C259.07921,29.7046661 259.041116,28.4856614 258.964927,27.0126753 C258.888739,25.5396891 258.799853,24.1429129 258.698268,22.8223046 L263.879089,22.8223046 Z M321.706205,40.7266156 C320.436389,40.7266156 318.849143,40.7901055 316.94442,40.917087 C315.039696,41.0440686 313.211189,41.3488198 311.458844,41.8313497 C309.706498,42.3138797 308.208138,43.0630597 306.963719,44.0789122 C305.719299,45.0947647 305.097099,46.4915409 305.097099,48.2692828 C305.097099,49.4375132 305.33836,50.4406525 305.82089,51.2787309 C306.30342,52.1168092 306.951017,52.8024993 307.763699,53.3358219 C308.576381,53.8691445 309.477936,54.2500835 310.468392,54.4786503 C311.458849,54.7072171 312.461988,54.8214988 313.47784,54.8214988 C315.306375,54.8214988 316.893621,54.5167476 318.239625,53.9072361 C319.58563,53.2977246 320.715749,52.4723568 321.630016,51.431108 C322.544283,50.3898592 323.217276,49.1708544 323.649013,47.7740572 C324.08075,46.37726 324.296616,44.891598 324.296616,43.3170266 L324.296616,40.7266156 L321.706205,40.7266156 Z M324.296616,36.6124335 L324.296616,35.6981708 C324.296616,29.5522631 321.249104,26.4793554 315.153989,26.4793554 C310.988993,26.4793554 307.357375,27.8761316 304.259025,30.669726 L301.211483,27.0888638 C304.563796,23.6349653 309.59219,21.9080419 316.296817,21.9080419 C318.023766,21.9080419 319.6872,22.1620012 321.287168,22.6699275 C322.887135,23.1778537 324.271214,23.9524297 325.439444,24.9936785 C326.607674,26.0349273 327.547324,27.3428178 328.258421,28.9173892 C328.969517,30.4919606 329.32506,32.3712596 329.32506,34.5553425 L329.32506,50.478751 C329.32506,51.8501519 329.38855,53.2850221 329.515532,54.7834045 C329.642513,56.281787 329.782191,57.5134897 329.934569,58.4785496 L325.058501,58.4785496 C324.906123,57.6150749 324.791842,56.6754254 324.715653,55.6595729 C324.639464,54.6437204 324.60137,53.6532791 324.60137,52.6882192 L324.448993,52.6882192 C322.976007,55.0754726 321.236385,56.789698 319.230077,57.8309468 C317.223768,58.8721956 314.77306,59.3928122 311.877881,59.3928122 C310.303309,59.3928122 308.779553,59.1769468 307.306567,58.7452095 C305.833581,58.3134722 304.525691,57.653178 303.382857,56.764307 C302.240022,55.8754361 301.325769,54.783411 300.640068,53.488199 C299.954368,52.1929871 299.611523,50.6819291 299.611523,48.9549799 C299.611523,46.0598002 300.360703,43.7868643 301.859085,42.1361039 C303.357468,40.4853436 305.236767,39.2536409 307.497039,38.4409589 C309.757311,37.6282769 312.169924,37.1203583 314.734952,36.9171878 C317.299979,36.7140172 319.649103,36.6124335 321.782393,36.6124335 L324.296616,36.6124335 Z M373.514424,40.6504271 C373.514424,38.6695147 373.196975,36.8156116 372.562067,35.0886624 C371.927159,33.3617131 371.025603,31.8633531 369.857373,30.5935375 C368.689143,29.3237218 367.279668,28.3205825 365.628908,27.5840894 C363.978148,26.8475964 362.111547,26.4793554 360.029049,26.4793554 C357.946552,26.4793554 356.041857,26.8475964 354.314907,27.5840894 C352.587958,28.3205825 351.089598,29.3237218 349.819782,30.5935375 C348.549967,31.8633531 347.559525,33.3617131 346.848429,35.0886624 C346.137332,36.8156116 345.781789,38.6695147 345.781789,40.6504271 C345.781789,42.6313395 346.137332,44.4852425 346.848429,46.2121918 C347.559525,47.9391411 348.549967,49.437501 349.819782,50.7073167 C351.089598,51.9771323 352.587958,52.9802716 354.314907,53.7167647 C356.041857,54.4532578 357.946552,54.8214988 360.029049,54.8214988 C362.111547,54.8214988 363.978148,54.4532578 365.628908,53.7167647 C367.279668,52.9802716 368.689143,51.9771323 369.857373,50.7073167 C371.025603,49.437501 371.927159,47.9391411 372.562067,46.2121918 C373.196975,44.4852425 373.514424,42.6313395 373.514424,40.6504271 Z M340.98191,22.8223046 L346.010355,22.8223046 L346.010355,28.7650121 L346.162732,28.7650121 C346.975414,27.5459891 347.940459,26.5047559 349.057897,25.6412812 C350.175335,24.7778066 351.343547,24.0667205 352.562571,23.5080016 C353.781594,22.9492827 355.038692,22.5429478 356.333904,22.2889847 C357.629116,22.0350216 358.860819,21.9080419 360.029049,21.9080419 C362.822644,21.9080419 365.374935,22.3778666 367.685999,23.3175302 C369.997064,24.2571938 371.990644,25.5650843 373.666801,27.2412409 C375.342958,28.9173976 376.650848,30.8982803 377.590512,33.1839484 C378.530175,35.4696166 379,37.9584179 379,40.6504271 C379,43.3424362 378.530175,45.8312376 377.590512,48.1169057 C376.650848,50.4025739 375.342958,52.3834566 373.666801,54.0596132 C371.990644,55.7357699 369.997064,57.0436604 367.685999,57.9833239 C365.374935,58.9229875 362.822644,59.3928122 360.029049,59.3928122 C358.860819,59.3928122 357.629116,59.2658326 356.333904,59.0118695 C355.038692,58.7579063 353.781594,58.3515714 352.562571,57.7928525 C351.343547,57.2341337 350.175335,56.5230476 349.057897,55.6595729 C347.940459,54.7960983 346.975414,53.7548651 346.162732,52.5358421 L346.010355,52.5358421 L346.010355,80.4208541 L340.98191,80.4208541 L340.98191,22.8223046 Z" id="Gradesnap" fill="#7A848D"></path>
    </g>
</svg>
