<?xml version="1.0" encoding="UTF-8"?>
<svg width="626px" height="185px" viewBox="0 0 626 185" version="1.1" xmlns="http://www.w3.org/2000/svg" xmlns:xlink="http://www.w3.org/1999/xlink">
    <!-- Generator: Sketch 42 (36781) - http://www.bohemiancoding.com/sketch -->
    <title>Combined Shape</title>
    <desc>Created with Sketch.</desc>
    <defs></defs>
    <g id="Page-1" stroke="none" stroke-width="1" fill="none" fill-rule="evenodd">
        <g id="Artboard" transform="translate(-636.000000, -250.000000)" fill="#7A848D">
            <path d="M862,364.63 L869.56,364.63 L876.322,385.378 C876.518001,386.022003 876.678999,386.581998 876.805,387.058 C876.931001,387.534002 877.022,388.037997 877.078,388.57 L877.162,388.57 C877.274001,387.701996 877.525998,386.624006 877.918,385.336 L884.596,364.63 L892.198,364.63 L892.198,394.45 L887.242,394.45 L887.242,372.694 C887.242,371.433994 887.297999,370.342005 887.41,369.418 L887.284,369.418 C887.256,369.782002 887.165001,370.271997 887.011,370.888 C886.856999,371.504003 886.696001,372.063997 886.528,372.568 L879.472,394.45 L874.642,394.45 L867.502,372.568 C867.333999,372.147998 867.180001,371.616003 867.04,370.972 C866.899999,370.327997 866.802,369.810002 866.746,369.418 L866.578,369.418 C866.690001,370.314004 866.746,371.405994 866.746,372.694 L866.746,394.45 L862,394.45 L862,364.63 Z M899.359,393.253 C898.056993,392.118994 897.406,390.614009 897.406,388.738 C897.406,387.729995 897.622998,386.820004 898.057,386.008 C898.491002,385.195996 899.127996,384.524003 899.968,383.992 C900.724004,383.543998 901.633995,383.173001 902.698,382.879 C903.762005,382.584999 905.133992,382.326001 906.814,382.102 L911.266,381.556 L911.266,381.01 C911.266,379.441992 910.951003,378.301004 910.321,377.587 C909.690997,376.872996 908.704007,376.516 907.36,376.516 C906.127994,376.516 905.155004,376.830997 904.441,377.461 C903.726996,378.091003 903.328,379.007994 903.244,380.212 L898.078,380.212 C898.246001,377.971989 899.155992,376.201007 900.808,374.899 C902.460008,373.596993 904.643986,372.946 907.36,372.946 C910.468016,372.946 912.742993,373.638993 914.185,375.025 C915.627007,376.411007 916.348,378.629985 916.348,381.682 L916.348,387.94 C916.348,390.796014 916.557998,392.965993 916.978,394.45 L911.938,394.45 C911.741999,393.301994 911.63,392.098006 911.602,390.838 C911.097997,392.126006 910.223006,393.133996 908.977,393.862 C907.730994,394.590004 906.254009,394.954 904.546,394.954 C902.389989,394.954 900.661007,394.387006 899.359,393.253 Z M909.964,389.872 C910.916005,388.863995 911.392,387.520008 911.392,385.84 L911.392,384.496 L906.646,385.21 C905.245993,385.434001 904.224003,385.811997 903.58,386.344 C902.935997,386.876003 902.614,387.589996 902.614,388.486 C902.614,389.382004 902.928997,390.088997 903.559,390.607 C904.189003,391.125003 905.063994,391.384 906.184,391.384 C907.752008,391.384 909.011995,390.880005 909.964,389.872 Z M922.564,373.45 L927.352,373.45 L927.352,377.524 C928.780007,374.443985 931.103984,372.904 934.324,372.904 C936.620011,372.904 938.355994,373.624993 939.532,375.067 C940.708006,376.509007 941.296,378.629986 941.296,381.43 L941.296,394.45 L936.214,394.45 L936.214,381.934 C936.214,378.629983 934.912013,376.978 932.308,376.978 C930.823993,376.978 929.669004,377.537994 928.843,378.658 C928.016996,379.778006 927.604,381.33199 927.604,383.32 L927.604,394.45 L922.564,394.45 L922.564,373.45 Z M947.575,393.253 C946.272993,392.118994 945.622,390.614009 945.622,388.738 C945.622,387.729995 945.838998,386.820004 946.273,386.008 C946.707002,385.195996 947.343996,384.524003 948.184,383.992 C948.940004,383.543998 949.849995,383.173001 950.914,382.879 C951.978005,382.584999 953.349992,382.326001 955.03,382.102 L959.482,381.556 L959.482,381.01 C959.482,379.441992 959.167003,378.301004 958.537,377.587 C957.906997,376.872996 956.920007,376.516 955.576,376.516 C954.343994,376.516 953.371004,376.830997 952.657,377.461 C951.942996,378.091003 951.544,379.007994 951.46,380.212 L946.294,380.212 C946.462001,377.971989 947.371992,376.201007 949.024,374.899 C950.676008,373.596993 952.859986,372.946 955.576,372.946 C958.684016,372.946 960.958993,373.638993 962.401,375.025 C963.843007,376.411007 964.564,378.629985 964.564,381.682 L964.564,387.94 C964.564,390.796014 964.773998,392.965993 965.194,394.45 L960.154,394.45 C959.957999,393.301994 959.846,392.098006 959.818,390.838 C959.313997,392.126006 958.439006,393.133996 957.193,393.862 C955.946994,394.590004 954.470009,394.954 952.762,394.954 C950.605989,394.954 948.877007,394.387006 947.575,393.253 Z M958.18,389.872 C959.132005,388.863995 959.608,387.520008 959.608,385.84 L959.608,384.496 L954.862,385.21 C953.461993,385.434001 952.440003,385.811997 951.796,386.344 C951.151997,386.876003 950.83,387.589996 950.83,388.486 C950.83,389.382004 951.144997,390.088997 951.775,390.607 C952.405003,391.125003 953.279994,391.384 954.4,391.384 C955.968008,391.384 957.227995,390.880005 958.18,389.872 Z M985.102,374.962 C986.586007,376.278007 987.328,377.95799 987.328,380.002 C987.328,381.374007 986.978003,382.605995 986.278,383.698 C985.577997,384.790005 984.577007,385.643997 983.275,386.26 C981.972993,386.876003 980.454009,387.184 978.718,387.184 C977.121992,387.184 975.708006,386.932003 974.476,386.428 C973.775997,386.792002 973.426,387.323996 973.426,388.024 C973.426,389.312006 974.503989,389.956 976.66,389.956 L982.12,389.956 C984.556012,389.956 986.403994,390.473995 987.664,391.51 C988.924006,392.546005 989.554,394.04399 989.554,396.004 C989.554,398.244011 988.609009,399.993994 986.719,401.254 C984.828991,402.514006 982.036018,403.144 978.34,403.144 C974.951983,403.144 972.467008,402.647005 970.885,401.653 C969.302992,400.658995 968.512,399.350008 968.512,397.726 C968.512,396.801995 968.812997,395.976004 969.415,395.248 C970.017003,394.519996 970.877994,393.974002 971.998,393.61 C970.233991,392.881996 969.352,391.622009 969.352,389.83 C969.352,388.765995 969.638997,387.863004 970.213,387.121 C970.787003,386.378996 971.591995,385.798002 972.628,385.378 C971.815996,384.733997 971.186002,383.950005 970.738,383.026 C970.289998,382.101995 970.066,381.094005 970.066,380.002 C970.066,377.901989 970.842992,376.201007 972.397,374.899 C973.951008,373.596993 976.057987,372.946 978.718,372.946 C980.398008,372.946 981.867994,373.225997 983.128,373.786 C983.464002,372.581994 984.107995,371.637003 985.06,370.951 C986.012005,370.264997 987.215993,369.922 988.672,369.922 C989.064002,369.922 989.441998,369.964 989.806,370.048 L989.806,373.828 C989.189997,373.687999 988.630003,373.618 988.126,373.618 C986.753993,373.618 985.746003,374.065996 985.102,374.962 Z M981.511,382.984 C982.225004,382.227996 982.582,381.248006 982.582,380.044 C982.582,378.839994 982.232004,377.867004 981.532,377.125 C980.831996,376.382996 979.894006,376.012 978.718,376.012 C977.541994,376.012 976.604003,376.382996 975.904,377.125 C975.203997,377.867004 974.854,378.825994 974.854,380.002 C974.854,381.206006 975.203997,382.192996 975.904,382.963 C976.604003,383.733004 977.541994,384.118 978.718,384.118 C979.866006,384.118 980.796996,383.740004 981.511,382.984 Z M975.904,394.24 C975.455998,394.24 974.896003,394.212 974.224,394.156 C973.187995,394.772003 972.67,395.653994 972.67,396.802 C972.67,398.84601 974.68598,399.868 978.718,399.868 C982.918021,399.868 985.018,398.86001 985.018,396.844 C985.018,395.135991 983.800012,394.282 981.364,394.282 L975.904,394.24 Z M1011.604,385.21 L996.862,385.21 C996.89,386.974009 997.414995,388.380995 998.437,389.431 C999.459005,390.481005 1000.79599,391.006 1002.448,391.006 C1003.65201,391.006 1004.688,390.712003 1005.556,390.124 C1006.424,389.535997 1007.096,388.668006 1007.572,387.52 L1011.436,389.284 C1010.652,391.104009 1009.46901,392.503995 1007.887,393.484 C1006.30499,394.464005 1004.43601,394.954 1002.28,394.954 C999.059984,394.954 996.540009,394.009009 994.72,392.119 C992.899991,390.228991 991.99,387.576017 991.99,384.16 C991.99,380.687983 992.878991,377.95101 994.657,375.949 C996.435009,373.94699 998.891984,372.946 1002.028,372.946 C1005.08002,372.946 1007.43899,373.806991 1009.105,375.529 C1010.77101,377.251009 1011.604,379.707984 1011.604,382.9 L1011.604,385.21 Z M1006.648,381.556 C1006.648,379.847991 1006.242,378.546004 1005.43,377.65 C1004.618,376.753996 1003.45601,376.306 1001.944,376.306 C1000.34799,376.306 999.116004,376.795995 998.248,377.776 C997.379996,378.756005 996.918,380.127991 996.862,381.892 L1006.648,381.892 L1006.648,381.556 Z M1019.08,393.589 C1017.79199,392.678995 1016.798,391.391008 1016.098,389.725 C1015.398,388.058992 1015.048,386.148011 1015.048,383.992 C1015.048,381.835989 1015.419,379.918008 1016.161,378.238 C1016.903,376.557992 1017.94599,375.256005 1019.29,374.332 C1020.63401,373.407995 1022.17399,372.946 1023.91,372.946 C1026.73801,372.946 1028.75399,374.107988 1029.958,376.432 L1029.958,364 L1034.998,364 L1034.998,394.45 L1030.252,394.45 L1030.252,390.67 C1029.664,392.014007 1028.78901,393.063996 1027.627,393.82 C1026.46499,394.576004 1025.10001,394.954 1023.532,394.954 C1021.85199,394.954 1020.36801,394.499005 1019.08,393.589 Z M1028.782,389.347 C1029.65,388.184994 1030.084,386.62401 1030.084,384.664 L1030.084,383.32 C1030.084,381.27599 1029.65,379.680006 1028.782,378.532 C1027.914,377.383994 1026.72401,376.81 1025.212,376.81 C1023.67199,376.81 1022.468,377.432994 1021.6,378.679 C1020.732,379.925006 1020.298,381.667989 1020.298,383.908 C1020.298,386.148011 1020.739,387.904994 1021.621,389.179 C1022.503,390.453006 1023.71399,391.09 1025.254,391.09 C1026.73801,391.09 1027.914,390.509006 1028.782,389.347 Z M1052.932,394.45 L1052.932,364.63 L1058.35,364.63 L1058.35,394.45 L1052.932,394.45 Z M1065.406,373.45 L1070.194,373.45 L1070.194,377.524 C1071.62201,374.443985 1073.94598,372.904 1077.166,372.904 C1079.46201,372.904 1081.19799,373.624993 1082.374,375.067 C1083.55001,376.509007 1084.138,378.629986 1084.138,381.43 L1084.138,394.45 L1079.056,394.45 L1079.056,381.934 C1079.056,378.629983 1077.75401,376.978 1075.15,376.978 C1073.66599,376.978 1072.511,377.537994 1071.685,378.658 C1070.859,379.778006 1070.446,381.33199 1070.446,383.32 L1070.446,394.45 L1065.406,394.45 L1065.406,373.45 Z M1087.414,373.45 L1091.194,373.45 L1091.194,368.158 L1096.234,366.142 L1096.234,373.45 L1101.358,373.45 L1101.358,377.104 L1096.234,377.104 L1096.234,387.142 C1096.234,388.290006 1096.486,389.129997 1096.99,389.662 C1097.494,390.194003 1098.26399,390.46 1099.3,390.46 C1100,390.46 1100.686,390.376001 1101.358,390.208 L1101.358,394.45 C1100.12599,394.702001 1098.97801,394.828 1097.914,394.828 C1095.50599,394.828 1093.78401,394.240006 1092.748,393.064 C1091.71199,391.887994 1091.194,390.180011 1091.194,387.94 L1091.194,377.104 L1087.414,377.104 L1087.414,373.45 Z M1123.828,385.21 L1109.086,385.21 C1109.114,386.974009 1109.63899,388.380995 1110.661,389.431 C1111.68301,390.481005 1113.01999,391.006 1114.672,391.006 C1115.87601,391.006 1116.912,390.712003 1117.78,390.124 C1118.648,389.535997 1119.32,388.668006 1119.796,387.52 L1123.66,389.284 C1122.876,391.104009 1121.69301,392.503995 1120.111,393.484 C1118.52899,394.464005 1116.66001,394.954 1114.504,394.954 C1111.28398,394.954 1108.76401,394.009009 1106.944,392.119 C1105.12399,390.228991 1104.214,387.576017 1104.214,384.16 C1104.214,380.687983 1105.10299,377.95101 1106.881,375.949 C1108.65901,373.94699 1111.11598,372.946 1114.252,372.946 C1117.30402,372.946 1119.66299,373.806991 1121.329,375.529 C1122.99501,377.251009 1123.828,379.707984 1123.828,382.9 L1123.828,385.21 Z M1118.872,381.556 C1118.872,379.847991 1118.466,378.546004 1117.654,377.65 C1116.842,376.753996 1115.68001,376.306 1114.168,376.306 C1112.57199,376.306 1111.34,376.795995 1110.472,377.776 C1109.604,378.756005 1109.142,380.127991 1109.086,381.892 L1118.872,381.892 L1118.872,381.556 Z M1143.316,374.962 C1144.80001,376.278007 1145.542,377.95799 1145.542,380.002 C1145.542,381.374007 1145.192,382.605995 1144.492,383.698 C1143.792,384.790005 1142.79101,385.643997 1141.489,386.26 C1140.18699,386.876003 1138.66801,387.184 1136.932,387.184 C1135.33599,387.184 1133.92201,386.932003 1132.69,386.428 C1131.99,386.792002 1131.64,387.323996 1131.64,388.024 C1131.64,389.312006 1132.71799,389.956 1134.874,389.956 L1140.334,389.956 C1142.77001,389.956 1144.61799,390.473995 1145.878,391.51 C1147.13801,392.546005 1147.768,394.04399 1147.768,396.004 C1147.768,398.244011 1146.82301,399.993994 1144.933,401.254 C1143.04299,402.514006 1140.25002,403.144 1136.554,403.144 C1133.16598,403.144 1130.68101,402.647005 1129.099,401.653 C1127.51699,400.658995 1126.726,399.350008 1126.726,397.726 C1126.726,396.801995 1127.027,395.976004 1127.629,395.248 C1128.231,394.519996 1129.09199,393.974002 1130.212,393.61 C1128.44799,392.881996 1127.566,391.622009 1127.566,389.83 C1127.566,388.765995 1127.853,387.863004 1128.427,387.121 C1129.001,386.378996 1129.80599,385.798002 1130.842,385.378 C1130.03,384.733997 1129.4,383.950005 1128.952,383.026 C1128.504,382.101995 1128.28,381.094005 1128.28,380.002 C1128.28,377.901989 1129.05699,376.201007 1130.611,374.899 C1132.16501,373.596993 1134.27199,372.946 1136.932,372.946 C1138.61201,372.946 1140.08199,373.225997 1141.342,373.786 C1141.678,372.581994 1142.322,371.637003 1143.274,370.951 C1144.226,370.264997 1145.42999,369.922 1146.886,369.922 C1147.278,369.922 1147.656,369.964 1148.02,370.048 L1148.02,373.828 C1147.404,373.687999 1146.844,373.618 1146.34,373.618 C1144.96799,373.618 1143.96,374.065996 1143.316,374.962 Z M1139.725,382.984 C1140.439,382.227996 1140.796,381.248006 1140.796,380.044 C1140.796,378.839994 1140.446,377.867004 1139.746,377.125 C1139.046,376.382996 1138.10801,376.012 1136.932,376.012 C1135.75599,376.012 1134.818,376.382996 1134.118,377.125 C1133.418,377.867004 1133.068,378.825994 1133.068,380.002 C1133.068,381.206006 1133.418,382.192996 1134.118,382.963 C1134.818,383.733004 1135.75599,384.118 1136.932,384.118 C1138.08001,384.118 1139.011,383.740004 1139.725,382.984 Z M1134.118,394.24 C1133.67,394.24 1133.11,394.212 1132.438,394.156 C1131.40199,394.772003 1130.884,395.653994 1130.884,396.802 C1130.884,398.84601 1132.89998,399.868 1136.932,399.868 C1141.13202,399.868 1143.232,398.86001 1143.232,396.844 C1143.232,395.135991 1142.01401,394.282 1139.578,394.282 L1134.118,394.24 Z M1159.192,374.437 C1160.31201,373.442995 1161.69799,372.946 1163.35,372.946 C1163.602,372.946 1163.798,372.96 1163.938,372.988 L1163.938,377.818 L1163.266,377.818 C1161.38999,377.818 1159.93401,378.307995 1158.898,379.288 C1158.142,380.044004 1157.638,380.939995 1157.386,381.976 C1157.134,383.012005 1157.008,384.243993 1157.008,385.672 L1157.008,394.45 L1151.968,394.45 L1151.968,373.45 L1156.672,373.45 L1156.672,378.532 C1157.232,376.795991 1158.07199,375.431005 1159.192,374.437 Z M1168.201,393.253 C1166.89899,392.118994 1166.248,390.614009 1166.248,388.738 C1166.248,387.729995 1166.465,386.820004 1166.899,386.008 C1167.333,385.195996 1167.97,384.524003 1168.81,383.992 C1169.566,383.543998 1170.47599,383.173001 1171.54,382.879 C1172.60401,382.584999 1173.97599,382.326001 1175.656,382.102 L1180.108,381.556 L1180.108,381.01 C1180.108,379.441992 1179.793,378.301004 1179.163,377.587 C1178.533,376.872996 1177.54601,376.516 1176.202,376.516 C1174.96999,376.516 1173.997,376.830997 1173.283,377.461 C1172.569,378.091003 1172.17,379.007994 1172.086,380.212 L1166.92,380.212 C1167.088,377.971989 1167.99799,376.201007 1169.65,374.899 C1171.30201,373.596993 1173.48599,372.946 1176.202,372.946 C1179.31002,372.946 1181.58499,373.638993 1183.027,375.025 C1184.46901,376.411007 1185.19,378.629985 1185.19,381.682 L1185.19,387.94 C1185.19,390.796014 1185.4,392.965993 1185.82,394.45 L1180.78,394.45 C1180.584,393.301994 1180.472,392.098006 1180.444,390.838 C1179.94,392.126006 1179.06501,393.133996 1177.819,393.862 C1176.57299,394.590004 1175.09601,394.954 1173.388,394.954 C1171.23199,394.954 1169.50301,394.387006 1168.201,393.253 Z M1178.806,389.872 C1179.758,388.863995 1180.234,387.520008 1180.234,385.84 L1180.234,384.496 L1175.488,385.21 C1174.08799,385.434001 1173.066,385.811997 1172.422,386.344 C1171.778,386.876003 1171.456,387.589996 1171.456,388.486 C1171.456,389.382004 1171.771,390.088997 1172.401,390.607 C1173.031,391.125003 1173.90599,391.384 1175.026,391.384 C1176.59401,391.384 1177.854,390.880005 1178.806,389.872 Z M1188.508,373.45 L1192.288,373.45 L1192.288,368.158 L1197.328,366.142 L1197.328,373.45 L1202.452,373.45 L1202.452,377.104 L1197.328,377.104 L1197.328,387.142 C1197.328,388.290006 1197.58,389.129997 1198.084,389.662 C1198.588,390.194003 1199.35799,390.46 1200.394,390.46 C1201.094,390.46 1201.78,390.376001 1202.452,390.208 L1202.452,394.45 C1201.21999,394.702001 1200.07201,394.828 1199.008,394.828 C1196.59999,394.828 1194.87801,394.240006 1193.842,393.064 C1192.80599,391.887994 1192.288,390.180011 1192.288,387.94 L1192.288,377.104 L1188.508,377.104 L1188.508,373.45 Z M1207.072,373.45 L1212.112,373.45 L1212.112,394.45 L1207.072,394.45 L1207.072,373.45 Z M1206.82,364.714 L1212.28,364.714 L1212.28,369.964 L1206.82,369.964 L1206.82,364.714 Z M1221.961,393.652 C1220.40699,392.783996 1219.196,391.517008 1218.328,389.851 C1217.46,388.184992 1217.026,386.204011 1217.026,383.908 C1217.026,381.611989 1217.46,379.638008 1218.328,377.986 C1219.196,376.333992 1220.40699,375.081004 1221.961,374.227 C1223.51501,373.372996 1225.29999,372.946 1227.316,372.946 C1229.33201,372.946 1231.11699,373.372996 1232.671,374.227 C1234.22501,375.081004 1235.436,376.333992 1236.304,377.986 C1237.172,379.638008 1237.606,381.611989 1237.606,383.908 C1237.606,386.204011 1237.172,388.184992 1236.304,389.851 C1235.436,391.517008 1234.22501,392.783996 1232.671,393.652 C1231.11699,394.520004 1229.33201,394.954 1227.316,394.954 C1225.29999,394.954 1223.51501,394.520004 1221.961,393.652 Z M1231.096,389.305 C1231.992,388.086994 1232.44,386.288012 1232.44,383.908 C1232.44,381.555988 1231.999,379.778006 1231.117,378.574 C1230.235,377.369994 1228.96801,376.768 1227.316,376.768 C1225.66399,376.768 1224.39,377.369994 1223.494,378.574 C1222.598,379.778006 1222.15,381.555988 1222.15,383.908 C1222.15,386.260012 1222.598,388.051994 1223.494,389.284 C1224.39,390.516006 1225.66399,391.132 1227.316,391.132 C1228.94001,391.132 1230.2,390.523006 1231.096,389.305 Z M1242.562,373.45 L1247.35,373.45 L1247.35,377.524 C1248.77801,374.443985 1251.10198,372.904 1254.322,372.904 C1256.61801,372.904 1258.35399,373.624993 1259.53,375.067 C1260.70601,376.509007 1261.294,378.629986 1261.294,381.43 L1261.294,394.45 L1256.212,394.45 L1256.212,381.934 C1256.212,378.629983 1254.91001,376.978 1252.306,376.978 C1250.82199,376.978 1249.667,377.537994 1248.841,378.658 C1248.015,379.778006 1247.602,381.33199 1247.602,383.32 L1247.602,394.45 L1242.562,394.45 L1242.562,373.45 Z M679.854003,262.041995 L697.763475,262.041995 L688.760335,326.136483 L679.854003,262.041995 Z M745.489796,250 L758.752486,262.041995 L709.380429,303.703412 L745.489796,250 Z M802.219257,285.154856 L804.058608,303.023622 L739.584511,300.790026 L802.219257,285.154856 Z M821,349.249344 L810.447933,363.816273 L763.980115,318.853018 L821,349.249344 Z M792.15123,409.55643 L774.62899,413.343832 L770.079016,348.76378 L792.15123,409.55643 Z M730.484563,435 L714.898482,426.065617 L754.686552,374.984252 L730.484563,435 Z M667.656201,412.566929 L662.138148,395.475066 L725.644165,384.209974 L667.656201,412.566929 Z M636,353.716535 L643.260597,337.304462 L698.053898,371.585302 L636,353.716535 Z M651.682889,288.650919 L668.043433,281.367454 L685.856096,343.616798 L651.682889,288.650919 Z M706.766614,250.971129 L723.804814,256.506562 L695.536892,314.677165 L706.766614,250.971129 Z M772.886447,259.808399 L781.792779,275.44357 L721.965463,299.624672 L772.886447,259.808399 Z M816.062794,310.792651 L812.287284,328.370079 L751.685505,306.228346 L816.062794,310.792651 Z M814.126635,377.703412 L799.605442,388.191601 L769.304553,331.089239 L814.126635,377.703412 Z M768.046049,426.065617 L750.233386,424.220472 L765.819466,361.388451 L768.046049,426.065617 Z M701.635793,431.115486 L689.631606,417.811024 L743.069597,381.587927 L701.635793,431.115486 Z M648.77865,390.328084 L648.77865,372.362205 L712.6719,381.296588 L648.77865,390.328084 Z M636.871272,324.485564 L648.77865,311.181102 L690.309262,360.708661 L636.871272,324.485564 Z M861.02199,345.039421 L861.02199,281.572897 L883.905694,281.572897 C902.498704,281.572897 914.655672,294.266202 914.655672,313.037991 C914.655672,331.809779 902.588093,345.039421 883.726915,345.039421 L861.02199,345.039421 Z M936.377313,346.112094 C927.259587,346.112094 921.181103,340.838116 921.181103,332.882453 C921.181103,328.591758 923.058282,325.016179 926.633861,322.781443 C929.851882,320.904264 934.142576,319.742201 941.204344,318.758917 L950.679628,317.596853 L950.679628,316.43479 C950.679628,309.73058 948.087334,306.870117 942.366407,306.870117 C937.092429,306.870117 933.963797,309.641191 933.606239,314.73639 L922.611335,314.73639 C923.32645,305.171717 930.835166,299.272012 942.366407,299.272012 C955.596049,299.272012 961.495754,304.903549 961.495754,317.865022 L961.495754,331.184053 C961.495754,337.262537 961.942701,341.910789 962.836596,345.039421 L952.10986,345.039421 C951.752302,342.804684 951.484133,340.123 951.394744,337.351926 C949.249397,342.804684 943.61786,346.112094 936.377313,346.112094 Z M968.557522,308.12157 L968.557522,300.344686 L976.602574,300.344686 L976.602574,289.081613 L987.329311,284.790918 L987.329311,300.344686 L998.234826,300.344686 L998.234826,308.12157 L987.329311,308.12157 L987.329311,329.485653 C987.329311,334.312684 989.385269,336.547421 993.854742,336.547421 C995.642532,336.547421 996.804595,336.368642 998.234826,336.011084 L998.234826,345.039421 C995.642532,345.575758 993.675963,345.843926 990.90489,345.843926 C980.178153,345.843926 976.602574,340.212389 976.602574,331.184053 L976.602574,308.12157 L968.557522,308.12157 Z M1007.53133,292.92536 L1007.53133,281.751676 L1019.15196,281.751676 L1019.15196,292.92536 L1007.53133,292.92536 Z M1008.06767,345.039421 L1008.06767,300.344686 L1018.7944,300.344686 L1018.7944,345.039421 L1008.06767,345.039421 Z M1051.15339,346.112094 C1037.83436,346.112094 1029.25297,336.904979 1029.25297,322.692053 C1029.25297,308.12157 1037.65558,299.272012 1051.24278,299.272012 C1062.32708,299.272012 1069.56762,305.171717 1070.90847,315.362117 L1060.4499,317.060517 C1059.73478,310.982033 1056.24859,307.674622 1050.97461,307.674622 C1044.35979,307.674622 1040.24788,313.216769 1040.24788,322.423885 C1040.24788,332.077948 1044.2704,337.620095 1051.15339,337.620095 C1056.51676,337.620095 1059.82417,334.312684 1060.80746,328.055421 L1070.90847,330.111379 C1069.29945,340.03361 1061.79074,346.112094 1051.15339,346.112094 Z M1092.54072,346.112094 C1083.42299,346.112094 1077.34451,340.838116 1077.34451,332.882453 C1077.34451,328.591758 1079.22169,325.016179 1082.79726,322.781443 C1086.01529,320.904264 1090.30598,319.742201 1097.36775,318.758917 L1106.84303,317.596853 L1106.84303,316.43479 C1106.84303,309.73058 1104.25074,306.870117 1098.52981,306.870117 C1093.25583,306.870117 1090.1272,309.641191 1089.76964,314.73639 L1078.77474,314.73639 C1079.48985,305.171717 1086.99857,299.272012 1098.52981,299.272012 C1111.75945,299.272012 1117.65916,304.903549 1117.65916,317.865022 L1117.65916,331.184053 C1117.65916,337.262537 1118.10611,341.910789 1119,345.039421 L1108.27326,345.039421 C1107.91571,342.804684 1107.64754,340.123 1107.55815,337.351926 C1105.4128,342.804684 1099.78126,346.112094 1092.54072,346.112094 Z M1096.02691,338.513989 C1102.64173,338.513989 1107.1112,333.865737 1107.1112,326.714579 L1107.1112,323.854116 L1097.01019,325.373737 C1091.11049,326.357022 1088.4288,328.502369 1088.4288,332.346116 C1088.4288,336.100474 1091.28926,338.513989 1096.02691,338.513989 Z M939.863502,338.513989 C946.478323,338.513989 950.947797,333.865737 950.947797,326.714579 L950.947797,323.854116 L940.846786,325.373737 C934.947081,326.357022 932.265397,328.502369 932.265397,332.346116 C932.265397,336.100474 935.12586,338.513989 939.863502,338.513989 Z M872.553231,336.011084 L883.369357,336.011084 C895.705104,336.011084 902.588093,325.641906 902.588093,313.037991 C902.588093,300.165907 895.973273,290.601234 883.548136,290.601234 L872.553231,290.601234 L872.553231,336.011084 Z" id="Combined-Shape"></path>
        </g>
    </g>
</svg>
