<?xml version="1.0" encoding="UTF-8"?>
<svg width="40px" height="40px" viewBox="0 0 40 40" version="1.1" xmlns="http://www.w3.org/2000/svg" xmlns:xlink="http://www.w3.org/1999/xlink">
    <!-- Generator: Sketch 40.2 (33826) - http://www.bohemiancoding.com/sketch -->
    <title>_logo</title>
    <desc>Created with Sketch.</desc>
    <defs></defs>
    <g id="Page-1" stroke="none" stroke-width="1" fill="none" fill-rule="evenodd">
        <g id="_home" transform="translate(-225.000000, -85.000000)" fill="#FFFFFF">
            <g id="_header">
                <path d="M247.888889,125 C257.339095,125 265,117.339095 265,107.888889 C265,98.4386832 257.339095,90.7777778 247.888889,90.7777778 C238.438683,90.7777778 230.777778,98.4386832 230.777778,107.888889 C230.777778,117.339095 238.438683,125 247.888889,125 Z M229.444444,93.8888889 C231.899043,93.8888889 233.888889,91.8990433 233.888889,89.4444444 C233.888889,86.9898456 231.899043,85 229.444444,85 C226.989846,85 225,86.9898456 225,89.4444444 C225,91.8990433 226.989846,93.8888889 229.444444,93.8888889 Z M252.644444,117.088889 C255.099043,117.088889 257.088889,115.099043 257.088889,112.644444 C257.088889,110.189846 255.099043,108.2 252.644444,108.2 C250.189846,108.2 248.2,110.189846 248.2,112.644444 C248.2,115.099043 250.189846,117.088889 252.644444,117.088889 Z" id="_logo"></path>
            </g>
        </g>
    </g>
</svg>
