<?xml version="1.0" encoding="UTF-8"?>
<svg width="326px" height="207px" viewBox="0 0 326 207" version="1.1" xmlns="http://www.w3.org/2000/svg" xmlns:xlink="http://www.w3.org/1999/xlink">
    <!-- Generator: Sketch 46.1 (44463) - http://www.bohemiancoding.com/sketch -->
    <title>Combined Shape</title>
    <desc>Created with Sketch.</desc>
    <defs></defs>
    <g id="Page-1" stroke="none" stroke-width="1" fill="none" fill-rule="evenodd">
        <g id="Artboard" transform="translate(-557.000000, -467.000000)" fill="#FFFFFF">
            <path d="M620.853556,542.423142 C633.090752,498.904359 673.069545,467 720.5,467 C767.995649,467 808.019136,498.992125 820.196747,542.602658 C858.421442,549.190888 883,559.461509 883,571 C883,582.568615 858.292937,592.862732 819.897087,599.448867 C807.373904,642.521168 767.61309,674 720.5,674 C673.452192,674 633.736299,642.608345 621.155135,599.62785 C582.159043,593.050089 557,582.673951 557,571 C557,559.35617 582.029379,549.003465 620.853551,542.423143 Z M821.41895,547.428017 C823.108034,554.847116 824,562.569393 824,570.5 C824,574.352896 823.789472,578.15662 823.379292,581.900297 C837.021996,577.087482 845,571.268243 845,565 C845,558.437235 836.254668,552.366659 821.41895,547.428017 Z M617.620708,581.900297 C617.210528,578.15662 617,574.352896 617,570.5 C617,562.569393 617.891966,554.847116 619.58105,547.428017 C604.745332,552.366659 596,558.437235 596,565 C596,571.268243 603.978004,577.087482 617.620708,581.900297 Z" id="Combined-Shape"></path>
        </g>
    </g>
</svg>