<?xml version="1.0" encoding="UTF-8"?>
<svg width="105px" height="105px" viewBox="0 0 105 105" version="1.1" xmlns="http://www.w3.org/2000/svg" xmlns:xlink="http://www.w3.org/1999/xlink">
    <g id="Page-1" stroke="none" stroke-width="1" fill="none" fill-rule="evenodd">
        <g id="Desktop-HD" transform="translate(-407.000000, -1025.000000)" fill="#778dae">
            <path d="M449.5,1130 C472.972102,1130 492,1110.9721 492,1087.5 C492,1064.0279 472.972102,1045 449.5,1045 C426.027898,1045 407,1064.0279 407,1087.5 C407,1110.9721 426.027898,1130 449.5,1130 Z M440,1108 C445.522847,1108 450,1103.52285 450,1098 C450,1092.47715 445.522847,1088 440,1088 C434.477153,1088 430,1092.47715 430,1098 C430,1103.52285 434.477153,1108 440,1108 Z M502,1045 C507.522847,1045 512,1040.52285 512,1035 C512,1029.47715 507.522847,1025 502,1025 C496.477153,1025 492,1029.47715 492,1035 C492,1040.52285 496.477153,1045 502,1045 Z" id="Combined-Shape"></path>
        </g>
    </g>
</svg>
