<?xml version="1.0" encoding="UTF-8"?>
<svg width="99px" height="153px" viewBox="0 0 99 153" version="1.1" xmlns="http://www.w3.org/2000/svg" xmlns:xlink="http://www.w3.org/1999/xlink">
    <!-- Generator: Sketch 41.2 (35397) - http://www.bohemiancoding.com/sketch -->
    <title>Combined Shape</title>
    <desc>Created with Sketch.</desc>
    <defs></defs>
    <g id="Page-1" stroke="none" stroke-width="1" fill="none" fill-rule="evenodd">
        <g id="Desktop-HD" transform="translate(-681.000000, -1009.000000)" fill="#FFFFFF">
            <path d="M703.376894,1011.87689 C706.501088,1008.7527 711.567992,1008.75428 714.6905,1011.87679 L777.623209,1074.8095 C780.747346,1077.93364 780.740943,1083.00527 777.623106,1086.12311 C774.498912,1089.2473 769.432008,1089.24572 766.3095,1086.12321 L703.376791,1023.1905 C700.252654,1020.06636 700.259057,1014.99473 703.376894,1011.87689 Z M693.376894,1048.87689 C696.501088,1045.7527 701.567992,1045.75428 704.6905,1048.87679 L767.623209,1111.8095 C770.747346,1114.93364 770.740943,1120.00527 767.623106,1123.12311 C764.498912,1126.2473 759.432008,1126.24572 756.3095,1123.12321 L693.376791,1060.1905 C690.252654,1057.06636 690.259057,1051.99473 693.376894,1048.87689 Z M683.376894,1084.87689 C686.501088,1081.7527 691.567992,1081.75428 694.6905,1084.87679 L757.623209,1147.8095 C760.747346,1150.93364 760.740943,1156.00527 757.623106,1159.12311 C754.498912,1162.2473 749.432008,1162.24572 746.3095,1159.12321 L683.376791,1096.1905 C680.252654,1093.06636 680.259057,1087.99473 683.376894,1084.87689 Z" id="Combined-Shape"></path>
        </g>
    </g>
</svg>