<?xml version="1.0" encoding="UTF-8"?>
<script></script>
<svg id="workBlue" width="432px" height="88px" viewBox="0 0 432 88" version="1.1" xmlns="http://www.w3.org/2000/svg" xmlns:xlink="http://www.w3.org/1999/xlink">
    <title>WORK</title>
    <desc>Created with Sketch.</desc>
    <defs></defs>
    <g id="Page-1" stroke="none" stroke-width="1" fill="none" fill-rule="evenodd" opacity="0.6">
        <g id="_home-2017-02-12" transform="translate(-294.000000, -730.000000)" stroke="#006AFF">
            <g id="_work-h1" transform="translate(295.000000, 731.000000)">
                <path d="M128.895377,17.9951338 L106.819951,80.8734793 L84.4306569,86.2092457 L70.7250608,48.5450122 L61.3090024,80.8734793 L38.919708,86.2092457 L10.7761557,15.2749392 L0,10.3576642 L4.18491484,1.98783455 L41.2214112,1.98783455 L41.2214112,9.41605839 L34.0024331,14.6472019 L54.0900243,66.3309002 L64.5523114,31.4914842 L58.5888078,15.0656934 L49.1727494,10.4622871 L53.3576642,2.09245742 L93.5328467,2.09245742 L93.5328467,9.52068127 L82.4428224,15.6934307 L100.22871,66.6447689 L116.759124,18.8321168 L101.379562,10.4622871 L105.564477,2.09245742 L140.508516,2.09245742 L140.508516,9.41605839 L128.895377,17.9951338 Z M217.615572,5.33576642 C224.032473,8.89296182 228.984573,13.8101876 232.472019,20.0875912 C235.959466,26.3649949 237.703163,33.479279 237.703163,41.4306569 C237.703163,49.5912817 235.07018,57.1240531 229.804136,64.0291971 C224.538092,70.9343411 217.999228,76.392113 210.187348,80.4026764 C202.375468,84.4132398 194.982192,86.4184915 188.007299,86.4184915 C179.637428,86.4184915 172.261589,84.6573574 165.879562,81.1350365 C159.497535,77.6127156 154.545435,72.7129268 151.023114,66.4355231 C147.500793,60.1581195 145.739659,53.0438354 145.739659,45.0924574 C145.739659,36.9318327 148.372642,29.3816243 153.638686,22.4416058 C158.90473,15.5015874 165.443594,10.0263785 173.255474,6.01581509 C181.067355,2.00525164 188.46063,0 195.435523,0 C203.805395,0 211.19867,1.77857102 217.615572,5.33576642 Z M179.794404,17.419708 C176.899823,19.6865482 174.598143,22.807766 172.889294,26.783455 C171.180446,30.759144 170.326034,35.1881345 170.326034,40.0705596 C170.326034,45.9992186 171.197883,51.4046796 172.941606,56.2871046 C174.685329,61.1695297 177.353186,65.0754111 180.945255,68.0048662 C184.537325,70.9343212 188.914005,72.3990268 194.075426,72.3990268 C197.562872,72.3990268 200.753838,71.2656237 203.648418,68.9987835 C206.542999,66.7319432 208.844679,63.6107255 210.553528,59.6350365 C212.262377,55.6593475 213.116788,51.2303569 213.116788,46.3479319 C213.116788,40.3495239 212.24494,34.9091891 210.501217,30.026764 C208.757493,25.1443389 206.107074,21.2558944 202.549878,18.3613139 C198.992683,15.4667333 194.598566,14.0194647 189.367397,14.0194647 C185.87995,14.0194647 182.688984,15.1528678 179.794404,17.419708 Z M330.817518,84.3260341 L306.126521,84.3260341 L287.712895,48.7542579 L283.318735,46.243309 L286.457421,39.9659367 L290.746959,39.9659367 C293.88566,39.9659367 296.36171,38.8325336 298.175182,36.5656934 C299.988655,34.2988532 300.895377,31.1078876 300.895377,26.9927007 C300.895377,22.4590203 299.7271,18.8146934 297.390511,16.0596107 C295.053922,13.304528 291.618839,11.9270073 287.085158,11.9270073 C284.36495,11.9270073 281.819152,12.729108 279.447689,14.3333333 L279.447689,72.7128954 L291.479319,75.8515815 L287.294404,84.2214112 L247.119221,84.2214112 L247.119221,76.7931873 L256.953771,68.2141119 L256.953771,13.6009732 L245.026764,10.4622871 L249.211679,2.09245742 L269.717762,2.09245742 C275.576672,2.09245742 281.365746,1.88321377 287.085158,1.46472019 C291.270094,1.18572448 294.339001,1.04622871 296.291971,1.04622871 C302.011383,1.04622871 307.085542,2.0052621 311.514599,3.92335766 C315.943656,5.84145322 319.378739,8.47443582 321.819951,11.8223844 C324.261164,15.170333 325.481752,18.9367187 325.481752,23.1216545 C325.481752,27.8645817 323.406752,32.2586983 319.256691,36.3041363 C315.10663,40.3495742 309.927849,43.5231028 303.720195,45.8248175 L313.03163,48.3357664 L325.06326,71.4574209 L335.002433,75.9562044 L330.817518,84.3260341 Z M382.501217,75.8515815 L378.316302,84.2214112 L338.141119,84.2214112 L338.141119,76.7931873 L347.975669,68.2141119 L347.975669,13.6009732 L336.048662,10.4622871 L340.233577,2.09245742 L380.408759,2.09245742 L380.408759,9.52068127 L370.469586,18.2043796 L370.469586,72.7128954 L382.501217,75.8515815 Z M425.815085,84.2214112 L401.647202,84.2214112 L373.399027,43 L402.484185,17.2627737 L390.243309,10.3576642 L394.428224,1.98783455 L427.80292,1.98783455 L427.80292,9.41605839 L395.683698,37.7688564 L418.909976,70.8296837 L430,75.8515815 L425.815085,84.2214112 Z" id="WORK"></path>
            </g>
        </g>
    </g>
</svg>
